<?xml version="1.0" encoding="utf-8" standalone="no"?>
<!DOCTYPE svg PUBLIC "-//W3C//DTD SVG 1.1//EN"
  "http://www.w3.org/Graphics/SVG/1.1/DTD/svg11.dtd">
<svg xmlns:xlink="http://www.w3.org/1999/xlink" width="864pt" height="432pt" viewBox="0 0 864 432" xmlns="http://www.w3.org/2000/svg" version="1.1">
 <metadata>
  <rdf:RDF xmlns:dc="http://purl.org/dc/elements/1.1/" xmlns:cc="http://creativecommons.org/ns#" xmlns:rdf="http://www.w3.org/1999/02/22-rdf-syntax-ns#">
   <cc:Work>
    <dc:type rdf:resource="http://purl.org/dc/dcmitype/StillImage"/>
    <dc:date>2025-09-17T13:07:35.719090</dc:date>
    <dc:format>image/svg+xml</dc:format>
    <dc:creator>
     <cc:Agent>
      <dc:title>Matplotlib v3.10.6, https://matplotlib.org/</dc:title>
     </cc:Agent>
    </dc:creator>
   </cc:Work>
  </rdf:RDF>
 </metadata>
 <defs>
  <style type="text/css">*{stroke-linejoin: round; stroke-linecap: butt}</style>
 </defs>
 <g id="figure_1">
  <g id="patch_1">
   <path d="M 0 432 
L 864 432 
L 864 0 
L 0 0 
z
" style="fill: #ffffff"/>
  </g>
  <g id="axes_1">
   <g id="patch_2">
    <path d="M 85.059669 151.302857 
L 307.838678 151.302857 
Q 322.690612 151.302857 322.690612 140.057143 
L 322.690612 72.582857 
Q 322.690612 61.337143 307.838678 61.337143 
L 85.059669 61.337143 
Q 70.207736 61.337143 70.207736 72.582857 
L 70.207736 140.057143 
Q 70.207736 151.302857 85.059669 151.302857 
z
" clip-path="url(#p852240ff4b)" style="fill: #add8e6; stroke: #000000; stroke-linejoin: miter"/>
   </g>
   <g id="patch_3">
    <path d="M 382.098347 151.302857 
L 604.877355 151.302857 
Q 619.729289 151.302857 619.729289 140.057143 
L 619.729289 72.582857 
Q 619.729289 61.337143 604.877355 61.337143 
L 382.098347 61.337143 
Q 367.246413 61.337143 367.246413 72.582857 
L 367.246413 140.057143 
Q 367.246413 151.302857 382.098347 151.302857 
z
" clip-path="url(#p852240ff4b)" style="fill: #add8e6; stroke: #000000; stroke-linejoin: miter"/>
   </g>
   <g id="patch_4">
    <path d="M 85.059669 263.76 
L 307.838678 263.76 
Q 322.690612 263.76 322.690612 252.514286 
L 322.690612 185.04 
Q 322.690612 173.794286 307.838678 173.794286 
L 85.059669 173.794286 
Q 70.207736 173.794286 70.207736 185.04 
L 70.207736 252.514286 
Q 70.207736 263.76 85.059669 263.76 
z
" clip-path="url(#p852240ff4b)" style="fill: #add8e6; stroke: #000000; stroke-linejoin: miter"/>
   </g>
   <g id="patch_5">
    <path d="M 382.098347 263.76 
L 604.877355 263.76 
Q 619.729289 263.76 619.729289 252.514286 
L 619.729289 185.04 
Q 619.729289 173.794286 604.877355 173.794286 
L 382.098347 173.794286 
Q 367.246413 173.794286 367.246413 185.04 
L 367.246413 252.514286 
Q 367.246413 263.76 382.098347 263.76 
z
" clip-path="url(#p852240ff4b)" style="fill: #add8e6; stroke: #000000; stroke-linejoin: miter"/>
   </g>
   <g id="patch_6">
    <path d="M 679.137025 263.76 
L 901.916033 263.76 
Q 916.767967 263.76 916.767967 252.514286 
L 916.767967 185.04 
Q 916.767967 173.794286 901.916033 173.794286 
L 679.137025 173.794286 
Q 664.285091 173.794286 664.285091 185.04 
L 664.285091 252.514286 
Q 664.285091 263.76 679.137025 263.76 
z
" clip-path="url(#p852240ff4b)" style="fill: #add8e6; stroke: #000000; stroke-linejoin: miter"/>
   </g>
   <g id="patch_7">
    <path d="M 85.059669 376.217143 
L 307.838678 376.217143 
Q 322.690612 376.217143 322.690612 364.971429 
L 322.690612 297.497143 
Q 322.690612 286.251429 307.838678 286.251429 
L 85.059669 286.251429 
Q 70.207736 286.251429 70.207736 297.497143 
L 70.207736 364.971429 
Q 70.207736 376.217143 85.059669 376.217143 
z
" clip-path="url(#p852240ff4b)" style="fill: #90ee90; stroke: #000000; stroke-linejoin: miter"/>
   </g>
   <g id="patch_8">
    <path d="M 382.098347 376.217143 
L 604.877355 376.217143 
Q 619.729289 376.217143 619.729289 364.971429 
L 619.729289 297.497143 
Q 619.729289 286.251429 604.877355 286.251429 
L 382.098347 286.251429 
Q 367.246413 286.251429 367.246413 297.497143 
L 367.246413 364.971429 
Q 367.246413 376.217143 382.098347 376.217143 
z
" clip-path="url(#p852240ff4b)" style="fill: #90ee90; stroke: #000000; stroke-linejoin: miter"/>
   </g>
   <g id="patch_9">
    <path d="M 679.137025 376.217143 
L 901.916033 376.217143 
Q 916.767967 376.217143 916.767967 364.971429 
L 916.767967 297.497143 
Q 916.767967 286.251429 901.916033 286.251429 
L 679.137025 286.251429 
Q 664.285091 286.251429 664.285091 297.497143 
L 664.285091 364.971429 
Q 664.285091 376.217143 679.137025 376.217143 
z
" clip-path="url(#p852240ff4b)" style="fill: #d3d3d3; stroke: #000000; stroke-linejoin: miter"/>
   </g>
   <g id="text_1">
    <!-- Preprocessing &amp; QC -->
    <g transform="translate(151.993392 103.639266) scale(0.09 -0.09)">
     <defs>
      <path id="DejaVuSans-50" d="M 1259 4147 
L 1259 2394 
L 2053 2394 
Q 2494 2394 2734 2622 
Q 2975 2850 2975 3272 
Q 2975 3691 2734 3919 
Q 2494 4147 2053 4147 
L 1259 4147 
z
M 628 4666 
L 2053 4666 
Q 2838 4666 3239 4311 
Q 3641 3956 3641 3272 
Q 3641 2581 3239 2228 
Q 2838 1875 2053 1875 
L 1259 1875 
L 1259 0 
L 628 0 
L 628 4666 
z
" transform="scale(0.015625)"/>
      <path id="DejaVuSans-72" d="M 2631 2963 
Q 2534 3019 2420 3045 
Q 2306 3072 2169 3072 
Q 1681 3072 1420 2755 
Q 1159 2438 1159 1844 
L 1159 0 
L 581 0 
L 581 3500 
L 1159 3500 
L 1159 2956 
Q 1341 3275 1631 3429 
Q 1922 3584 2338 3584 
Q 2397 3584 2469 3576 
Q 2541 3569 2628 3553 
L 2631 2963 
z
" transform="scale(0.015625)"/>
      <path id="DejaVuSans-65" d="M 3597 1894 
L 3597 1613 
L 953 1613 
Q 991 1019 1311 708 
Q 1631 397 2203 397 
Q 2534 397 2845 478 
Q 3156 559 3463 722 
L 3463 178 
Q 3153 47 2828 -22 
Q 2503 -91 2169 -91 
Q 1331 -91 842 396 
Q 353 884 353 1716 
Q 353 2575 817 3079 
Q 1281 3584 2069 3584 
Q 2775 3584 3186 3129 
Q 3597 2675 3597 1894 
z
M 3022 2063 
Q 3016 2534 2758 2815 
Q 2500 3097 2075 3097 
Q 1594 3097 1305 2825 
Q 1016 2553 972 2059 
L 3022 2063 
z
" transform="scale(0.015625)"/>
      <path id="DejaVuSans-70" d="M 1159 525 
L 1159 -1331 
L 581 -1331 
L 581 3500 
L 1159 3500 
L 1159 2969 
Q 1341 3281 1617 3432 
Q 1894 3584 2278 3584 
Q 2916 3584 3314 3078 
Q 3713 2572 3713 1747 
Q 3713 922 3314 415 
Q 2916 -91 2278 -91 
Q 1894 -91 1617 61 
Q 1341 213 1159 525 
z
M 3116 1747 
Q 3116 2381 2855 2742 
Q 2594 3103 2138 3103 
Q 1681 3103 1420 2742 
Q 1159 2381 1159 1747 
Q 1159 1113 1420 752 
Q 1681 391 2138 391 
Q 2594 391 2855 752 
Q 3116 1113 3116 1747 
z
" transform="scale(0.015625)"/>
      <path id="DejaVuSans-6f" d="M 1959 3097 
Q 1497 3097 1228 2736 
Q 959 2375 959 1747 
Q 959 1119 1226 758 
Q 1494 397 1959 397 
Q 2419 397 2687 759 
Q 2956 1122 2956 1747 
Q 2956 2369 2687 2733 
Q 2419 3097 1959 3097 
z
M 1959 3584 
Q 2709 3584 3137 3096 
Q 3566 2609 3566 1747 
Q 3566 888 3137 398 
Q 2709 -91 1959 -91 
Q 1206 -91 779 398 
Q 353 888 353 1747 
Q 353 2609 779 3096 
Q 1206 3584 1959 3584 
z
" transform="scale(0.015625)"/>
      <path id="DejaVuSans-63" d="M 3122 3366 
L 3122 2828 
Q 2878 2963 2633 3030 
Q 2388 3097 2138 3097 
Q 1578 3097 1268 2742 
Q 959 2388 959 1747 
Q 959 1106 1268 751 
Q 1578 397 2138 397 
Q 2388 397 2633 464 
Q 2878 531 3122 666 
L 3122 134 
Q 2881 22 2623 -34 
Q 2366 -91 2075 -91 
Q 1284 -91 818 406 
Q 353 903 353 1747 
Q 353 2603 823 3093 
Q 1294 3584 2113 3584 
Q 2378 3584 2631 3529 
Q 2884 3475 3122 3366 
z
" transform="scale(0.015625)"/>
      <path id="DejaVuSans-73" d="M 2834 3397 
L 2834 2853 
Q 2591 2978 2328 3040 
Q 2066 3103 1784 3103 
Q 1356 3103 1142 2972 
Q 928 2841 928 2578 
Q 928 2378 1081 2264 
Q 1234 2150 1697 2047 
L 1894 2003 
Q 2506 1872 2764 1633 
Q 3022 1394 3022 966 
Q 3022 478 2636 193 
Q 2250 -91 1575 -91 
Q 1294 -91 989 -36 
Q 684 19 347 128 
L 347 722 
Q 666 556 975 473 
Q 1284 391 1588 391 
Q 1994 391 2212 530 
Q 2431 669 2431 922 
Q 2431 1156 2273 1281 
Q 2116 1406 1581 1522 
L 1381 1569 
Q 847 1681 609 1914 
Q 372 2147 372 2553 
Q 372 3047 722 3315 
Q 1072 3584 1716 3584 
Q 2034 3584 2315 3537 
Q 2597 3491 2834 3397 
z
" transform="scale(0.015625)"/>
      <path id="DejaVuSans-69" d="M 603 3500 
L 1178 3500 
L 1178 0 
L 603 0 
L 603 3500 
z
M 603 4863 
L 1178 4863 
L 1178 4134 
L 603 4134 
L 603 4863 
z
" transform="scale(0.015625)"/>
      <path id="DejaVuSans-6e" d="M 3513 2113 
L 3513 0 
L 2938 0 
L 2938 2094 
Q 2938 2591 2744 2837 
Q 2550 3084 2163 3084 
Q 1697 3084 1428 2787 
Q 1159 2491 1159 1978 
L 1159 0 
L 581 0 
L 581 3500 
L 1159 3500 
L 1159 2956 
Q 1366 3272 1645 3428 
Q 1925 3584 2291 3584 
Q 2894 3584 3203 3211 
Q 3513 2838 3513 2113 
z
" transform="scale(0.015625)"/>
      <path id="DejaVuSans-67" d="M 2906 1791 
Q 2906 2416 2648 2759 
Q 2391 3103 1925 3103 
Q 1463 3103 1205 2759 
Q 947 2416 947 1791 
Q 947 1169 1205 825 
Q 1463 481 1925 481 
Q 2391 481 2648 825 
Q 2906 1169 2906 1791 
z
M 3481 434 
Q 3481 -459 3084 -895 
Q 2688 -1331 1869 -1331 
Q 1566 -1331 1297 -1286 
Q 1028 -1241 775 -1147 
L 775 -588 
Q 1028 -725 1275 -790 
Q 1522 -856 1778 -856 
Q 2344 -856 2625 -561 
Q 2906 -266 2906 331 
L 2906 616 
Q 2728 306 2450 153 
Q 2172 0 1784 0 
Q 1141 0 747 490 
Q 353 981 353 1791 
Q 353 2603 747 3093 
Q 1141 3584 1784 3584 
Q 2172 3584 2450 3431 
Q 2728 3278 2906 2969 
L 2906 3500 
L 3481 3500 
L 3481 434 
z
" transform="scale(0.015625)"/>
      <path id="DejaVuSans-20" transform="scale(0.015625)"/>
      <path id="DejaVuSans-26" d="M 1556 2509 
Q 1272 2256 1139 2004 
Q 1006 1753 1006 1478 
Q 1006 1022 1337 719 
Q 1669 416 2169 416 
Q 2466 416 2725 514 
Q 2984 613 3213 813 
L 1556 2509 
z
M 1997 2859 
L 3584 1234 
Q 3769 1513 3872 1830 
Q 3975 2147 3994 2503 
L 4575 2503 
Q 4538 2091 4375 1687 
Q 4213 1284 3922 891 
L 4794 0 
L 4006 0 
L 3559 459 
Q 3234 181 2878 45 
Q 2522 -91 2113 -91 
Q 1359 -91 881 339 
Q 403 769 403 1441 
Q 403 1841 612 2192 
Q 822 2544 1241 2853 
Q 1091 3050 1012 3245 
Q 934 3441 934 3628 
Q 934 4134 1281 4442 
Q 1628 4750 2203 4750 
Q 2463 4750 2720 4694 
Q 2978 4638 3244 4525 
L 3244 3956 
Q 2972 4103 2725 4179 
Q 2478 4256 2266 4256 
Q 1938 4256 1733 4082 
Q 1528 3909 1528 3634 
Q 1528 3475 1620 3314 
Q 1713 3153 1997 2859 
z
" transform="scale(0.015625)"/>
      <path id="DejaVuSans-51" d="M 2522 4238 
Q 1834 4238 1429 3725 
Q 1025 3213 1025 2328 
Q 1025 1447 1429 934 
Q 1834 422 2522 422 
Q 3209 422 3611 934 
Q 4013 1447 4013 2328 
Q 4013 3213 3611 3725 
Q 3209 4238 2522 4238 
z
M 3406 84 
L 4238 -825 
L 3475 -825 
L 2784 -78 
Q 2681 -84 2626 -87 
Q 2572 -91 2522 -91 
Q 1538 -91 948 567 
Q 359 1225 359 2328 
Q 359 3434 948 4092 
Q 1538 4750 2522 4750 
Q 3503 4750 4090 4092 
Q 4678 3434 4678 2328 
Q 4678 1516 4351 937 
Q 4025 359 3406 84 
z
" transform="scale(0.015625)"/>
      <path id="DejaVuSans-43" d="M 4122 4306 
L 4122 3641 
Q 3803 3938 3442 4084 
Q 3081 4231 2675 4231 
Q 1875 4231 1450 3742 
Q 1025 3253 1025 2328 
Q 1025 1406 1450 917 
Q 1875 428 2675 428 
Q 3081 428 3442 575 
Q 3803 722 4122 1019 
L 4122 359 
Q 3791 134 3420 21 
Q 3050 -91 2638 -91 
Q 1578 -91 968 557 
Q 359 1206 359 2328 
Q 359 3453 968 4101 
Q 1578 4750 2638 4750 
Q 3056 4750 3426 4639 
Q 3797 4528 4122 4306 
z
" transform="scale(0.015625)"/>
     </defs>
     <use xlink:href="#DejaVuSans-50"/>
     <use xlink:href="#DejaVuSans-72" transform="translate(58.552734 0)"/>
     <use xlink:href="#DejaVuSans-65" transform="translate(97.416016 0)"/>
     <use xlink:href="#DejaVuSans-70" transform="translate(158.939453 0)"/>
     <use xlink:href="#DejaVuSans-72" transform="translate(222.416016 0)"/>
     <use xlink:href="#DejaVuSans-6f" transform="translate(261.279297 0)"/>
     <use xlink:href="#DejaVuSans-63" transform="translate(322.460938 0)"/>
     <use xlink:href="#DejaVuSans-65" transform="translate(377.441406 0)"/>
     <use xlink:href="#DejaVuSans-73" transform="translate(438.964844 0)"/>
     <use xlink:href="#DejaVuSans-73" transform="translate(491.064453 0)"/>
     <use xlink:href="#DejaVuSans-69" transform="translate(543.164062 0)"/>
     <use xlink:href="#DejaVuSans-6e" transform="translate(570.947266 0)"/>
     <use xlink:href="#DejaVuSans-67" transform="translate(634.326172 0)"/>
     <use xlink:href="#DejaVuSans-20" transform="translate(697.802734 0)"/>
     <use xlink:href="#DejaVuSans-26" transform="translate(729.589844 0)"/>
     <use xlink:href="#DejaVuSans-20" transform="translate(807.568359 0)"/>
     <use xlink:href="#DejaVuSans-51" transform="translate(839.355469 0)"/>
     <use xlink:href="#DejaVuSans-43" transform="translate(918.066406 0)"/>
    </g>
    <!-- (env: poloco_qc_mapping) -->
    <g transform="translate(137.468939 113.717297) scale(0.09 -0.09)">
     <defs>
      <path id="DejaVuSans-28" d="M 1984 4856 
Q 1566 4138 1362 3434 
Q 1159 2731 1159 2009 
Q 1159 1288 1364 580 
Q 1569 -128 1984 -844 
L 1484 -844 
Q 1016 -109 783 600 
Q 550 1309 550 2009 
Q 550 2706 781 3412 
Q 1013 4119 1484 4856 
L 1984 4856 
z
" transform="scale(0.015625)"/>
      <path id="DejaVuSans-76" d="M 191 3500 
L 800 3500 
L 1894 563 
L 2988 3500 
L 3597 3500 
L 2284 0 
L 1503 0 
L 191 3500 
z
" transform="scale(0.015625)"/>
      <path id="DejaVuSans-3a" d="M 750 794 
L 1409 794 
L 1409 0 
L 750 0 
L 750 794 
z
M 750 3309 
L 1409 3309 
L 1409 2516 
L 750 2516 
L 750 3309 
z
" transform="scale(0.015625)"/>
      <path id="DejaVuSans-6c" d="M 603 4863 
L 1178 4863 
L 1178 0 
L 603 0 
L 603 4863 
z
" transform="scale(0.015625)"/>
      <path id="DejaVuSans-5f" d="M 3263 -1063 
L 3263 -1509 
L -63 -1509 
L -63 -1063 
L 3263 -1063 
z
" transform="scale(0.015625)"/>
      <path id="DejaVuSans-71" d="M 947 1747 
Q 947 1113 1208 752 
Q 1469 391 1925 391 
Q 2381 391 2643 752 
Q 2906 1113 2906 1747 
Q 2906 2381 2643 2742 
Q 2381 3103 1925 3103 
Q 1469 3103 1208 2742 
Q 947 2381 947 1747 
z
M 2906 525 
Q 2725 213 2448 61 
Q 2172 -91 1784 -91 
Q 1150 -91 751 415 
Q 353 922 353 1747 
Q 353 2572 751 3078 
Q 1150 3584 1784 3584 
Q 2172 3584 2448 3432 
Q 2725 3281 2906 2969 
L 2906 3500 
L 3481 3500 
L 3481 -1331 
L 2906 -1331 
L 2906 525 
z
" transform="scale(0.015625)"/>
      <path id="DejaVuSans-6d" d="M 3328 2828 
Q 3544 3216 3844 3400 
Q 4144 3584 4550 3584 
Q 5097 3584 5394 3201 
Q 5691 2819 5691 2113 
L 5691 0 
L 5113 0 
L 5113 2094 
Q 5113 2597 4934 2840 
Q 4756 3084 4391 3084 
Q 3944 3084 3684 2787 
Q 3425 2491 3425 1978 
L 3425 0 
L 2847 0 
L 2847 2094 
Q 2847 2600 2669 2842 
Q 2491 3084 2119 3084 
Q 1678 3084 1418 2786 
Q 1159 2488 1159 1978 
L 1159 0 
L 581 0 
L 581 3500 
L 1159 3500 
L 1159 2956 
Q 1356 3278 1631 3431 
Q 1906 3584 2284 3584 
Q 2666 3584 2933 3390 
Q 3200 3197 3328 2828 
z
" transform="scale(0.015625)"/>
      <path id="DejaVuSans-61" d="M 2194 1759 
Q 1497 1759 1228 1600 
Q 959 1441 959 1056 
Q 959 750 1161 570 
Q 1363 391 1709 391 
Q 2188 391 2477 730 
Q 2766 1069 2766 1631 
L 2766 1759 
L 2194 1759 
z
M 3341 1997 
L 3341 0 
L 2766 0 
L 2766 531 
Q 2569 213 2275 61 
Q 1981 -91 1556 -91 
Q 1019 -91 701 211 
Q 384 513 384 1019 
Q 384 1609 779 1909 
Q 1175 2209 1959 2209 
L 2766 2209 
L 2766 2266 
Q 2766 2663 2505 2880 
Q 2244 3097 1772 3097 
Q 1472 3097 1187 3025 
Q 903 2953 641 2809 
L 641 3341 
Q 956 3463 1253 3523 
Q 1550 3584 1831 3584 
Q 2591 3584 2966 3190 
Q 3341 2797 3341 1997 
z
" transform="scale(0.015625)"/>
      <path id="DejaVuSans-29" d="M 513 4856 
L 1013 4856 
Q 1481 4119 1714 3412 
Q 1947 2706 1947 2009 
Q 1947 1309 1714 600 
Q 1481 -109 1013 -844 
L 513 -844 
Q 928 -128 1133 580 
Q 1338 1288 1338 2009 
Q 1338 2731 1133 3434 
Q 928 4138 513 4856 
z
" transform="scale(0.015625)"/>
     </defs>
     <use xlink:href="#DejaVuSans-28"/>
     <use xlink:href="#DejaVuSans-65" transform="translate(39.013672 0)"/>
     <use xlink:href="#DejaVuSans-6e" transform="translate(100.537109 0)"/>
     <use xlink:href="#DejaVuSans-76" transform="translate(163.916016 0)"/>
     <use xlink:href="#DejaVuSans-3a" transform="translate(217.595703 0)"/>
     <use xlink:href="#DejaVuSans-20" transform="translate(251.287109 0)"/>
     <use xlink:href="#DejaVuSans-70" transform="translate(283.074219 0)"/>
     <use xlink:href="#DejaVuSans-6f" transform="translate(346.550781 0)"/>
     <use xlink:href="#DejaVuSans-6c" transform="translate(407.732422 0)"/>
     <use xlink:href="#DejaVuSans-6f" transform="translate(435.515625 0)"/>
     <use xlink:href="#DejaVuSans-63" transform="translate(496.697266 0)"/>
     <use xlink:href="#DejaVuSans-6f" transform="translate(551.677734 0)"/>
     <use xlink:href="#DejaVuSans-5f" transform="translate(612.859375 0)"/>
     <use xlink:href="#DejaVuSans-71" transform="translate(662.859375 0)"/>
     <use xlink:href="#DejaVuSans-63" transform="translate(726.335938 0)"/>
     <use xlink:href="#DejaVuSans-5f" transform="translate(781.316406 0)"/>
     <use xlink:href="#DejaVuSans-6d" transform="translate(831.316406 0)"/>
     <use xlink:href="#DejaVuSans-61" transform="translate(928.728516 0)"/>
     <use xlink:href="#DejaVuSans-70" transform="translate(990.007812 0)"/>
     <use xlink:href="#DejaVuSans-70" transform="translate(1053.484375 0)"/>
     <use xlink:href="#DejaVuSans-69" transform="translate(1116.960938 0)"/>
     <use xlink:href="#DejaVuSans-6e" transform="translate(1144.744141 0)"/>
     <use xlink:href="#DejaVuSans-67" transform="translate(1208.123047 0)"/>
     <use xlink:href="#DejaVuSans-29" transform="translate(1271.599609 0)"/>
    </g>
   </g>
   <g id="text_2">
    <!-- Mapping &amp; BAM Filtering -->
    <g transform="translate(438.222929 103.639266) scale(0.09 -0.09)">
     <defs>
      <path id="DejaVuSans-4d" d="M 628 4666 
L 1569 4666 
L 2759 1491 
L 3956 4666 
L 4897 4666 
L 4897 0 
L 4281 0 
L 4281 4097 
L 3078 897 
L 2444 897 
L 1241 4097 
L 1241 0 
L 628 0 
L 628 4666 
z
" transform="scale(0.015625)"/>
      <path id="DejaVuSans-42" d="M 1259 2228 
L 1259 519 
L 2272 519 
Q 2781 519 3026 730 
Q 3272 941 3272 1375 
Q 3272 1813 3026 2020 
Q 2781 2228 2272 2228 
L 1259 2228 
z
M 1259 4147 
L 1259 2741 
L 2194 2741 
Q 2656 2741 2882 2914 
Q 3109 3088 3109 3444 
Q 3109 3797 2882 3972 
Q 2656 4147 2194 4147 
L 1259 4147 
z
M 628 4666 
L 2241 4666 
Q 2963 4666 3353 4366 
Q 3744 4066 3744 3513 
Q 3744 3084 3544 2831 
Q 3344 2578 2956 2516 
Q 3422 2416 3680 2098 
Q 3938 1781 3938 1306 
Q 3938 681 3513 340 
Q 3088 0 2303 0 
L 628 0 
L 628 4666 
z
" transform="scale(0.015625)"/>
      <path id="DejaVuSans-41" d="M 2188 4044 
L 1331 1722 
L 3047 1722 
L 2188 4044 
z
M 1831 4666 
L 2547 4666 
L 4325 0 
L 3669 0 
L 3244 1197 
L 1141 1197 
L 716 0 
L 50 0 
L 1831 4666 
z
" transform="scale(0.015625)"/>
      <path id="DejaVuSans-46" d="M 628 4666 
L 3309 4666 
L 3309 4134 
L 1259 4134 
L 1259 2759 
L 3109 2759 
L 3109 2228 
L 1259 2228 
L 1259 0 
L 628 0 
L 628 4666 
z
" transform="scale(0.015625)"/>
      <path id="DejaVuSans-74" d="M 1172 4494 
L 1172 3500 
L 2356 3500 
L 2356 3053 
L 1172 3053 
L 1172 1153 
Q 1172 725 1289 603 
Q 1406 481 1766 481 
L 2356 481 
L 2356 0 
L 1766 0 
Q 1100 0 847 248 
Q 594 497 594 1153 
L 594 3053 
L 172 3053 
L 172 3500 
L 594 3500 
L 594 4494 
L 1172 4494 
z
" transform="scale(0.015625)"/>
     </defs>
     <use xlink:href="#DejaVuSans-4d"/>
     <use xlink:href="#DejaVuSans-61" transform="translate(86.279297 0)"/>
     <use xlink:href="#DejaVuSans-70" transform="translate(147.558594 0)"/>
     <use xlink:href="#DejaVuSans-70" transform="translate(211.035156 0)"/>
     <use xlink:href="#DejaVuSans-69" transform="translate(274.511719 0)"/>
     <use xlink:href="#DejaVuSans-6e" transform="translate(302.294922 0)"/>
     <use xlink:href="#DejaVuSans-67" transform="translate(365.673828 0)"/>
     <use xlink:href="#DejaVuSans-20" transform="translate(429.150391 0)"/>
     <use xlink:href="#DejaVuSans-26" transform="translate(460.9375 0)"/>
     <use xlink:href="#DejaVuSans-20" transform="translate(538.916016 0)"/>
     <use xlink:href="#DejaVuSans-42" transform="translate(570.703125 0)"/>
     <use xlink:href="#DejaVuSans-41" transform="translate(639.306641 0)"/>
     <use xlink:href="#DejaVuSans-4d" transform="translate(707.714844 0)"/>
     <use xlink:href="#DejaVuSans-20" transform="translate(793.994141 0)"/>
     <use xlink:href="#DejaVuSans-46" transform="translate(825.78125 0)"/>
     <use xlink:href="#DejaVuSans-69" transform="translate(876.050781 0)"/>
     <use xlink:href="#DejaVuSans-6c" transform="translate(903.833984 0)"/>
     <use xlink:href="#DejaVuSans-74" transform="translate(931.617188 0)"/>
     <use xlink:href="#DejaVuSans-65" transform="translate(970.826172 0)"/>
     <use xlink:href="#DejaVuSans-72" transform="translate(1032.349609 0)"/>
     <use xlink:href="#DejaVuSans-69" transform="translate(1073.462891 0)"/>
     <use xlink:href="#DejaVuSans-6e" transform="translate(1101.246094 0)"/>
     <use xlink:href="#DejaVuSans-67" transform="translate(1164.625 0)"/>
    </g>
    <!-- (env: poloco_qc_mapping) -->
    <g transform="translate(434.507617 113.717297) scale(0.09 -0.09)">
     <use xlink:href="#DejaVuSans-28"/>
     <use xlink:href="#DejaVuSans-65" transform="translate(39.013672 0)"/>
     <use xlink:href="#DejaVuSans-6e" transform="translate(100.537109 0)"/>
     <use xlink:href="#DejaVuSans-76" transform="translate(163.916016 0)"/>
     <use xlink:href="#DejaVuSans-3a" transform="translate(217.595703 0)"/>
     <use xlink:href="#DejaVuSans-20" transform="translate(251.287109 0)"/>
     <use xlink:href="#DejaVuSans-70" transform="translate(283.074219 0)"/>
     <use xlink:href="#DejaVuSans-6f" transform="translate(346.550781 0)"/>
     <use xlink:href="#DejaVuSans-6c" transform="translate(407.732422 0)"/>
     <use xlink:href="#DejaVuSans-6f" transform="translate(435.515625 0)"/>
     <use xlink:href="#DejaVuSans-63" transform="translate(496.697266 0)"/>
     <use xlink:href="#DejaVuSans-6f" transform="translate(551.677734 0)"/>
     <use xlink:href="#DejaVuSans-5f" transform="translate(612.859375 0)"/>
     <use xlink:href="#DejaVuSans-71" transform="translate(662.859375 0)"/>
     <use xlink:href="#DejaVuSans-63" transform="translate(726.335938 0)"/>
     <use xlink:href="#DejaVuSans-5f" transform="translate(781.316406 0)"/>
     <use xlink:href="#DejaVuSans-6d" transform="translate(831.316406 0)"/>
     <use xlink:href="#DejaVuSans-61" transform="translate(928.728516 0)"/>
     <use xlink:href="#DejaVuSans-70" transform="translate(990.007812 0)"/>
     <use xlink:href="#DejaVuSans-70" transform="translate(1053.484375 0)"/>
     <use xlink:href="#DejaVuSans-69" transform="translate(1116.960938 0)"/>
     <use xlink:href="#DejaVuSans-6e" transform="translate(1144.744141 0)"/>
     <use xlink:href="#DejaVuSans-67" transform="translate(1208.123047 0)"/>
     <use xlink:href="#DejaVuSans-29" transform="translate(1271.599609 0)"/>
    </g>
   </g>
   <g id="text_3">
    <!-- Coverage Estimation -->
    <g transform="translate(149.495189 216.096408) scale(0.09 -0.09)">
     <defs>
      <path id="DejaVuSans-45" d="M 628 4666 
L 3578 4666 
L 3578 4134 
L 1259 4134 
L 1259 2753 
L 3481 2753 
L 3481 2222 
L 1259 2222 
L 1259 531 
L 3634 531 
L 3634 0 
L 628 0 
L 628 4666 
z
" transform="scale(0.015625)"/>
     </defs>
     <use xlink:href="#DejaVuSans-43"/>
     <use xlink:href="#DejaVuSans-6f" transform="translate(69.824219 0)"/>
     <use xlink:href="#DejaVuSans-76" transform="translate(131.005859 0)"/>
     <use xlink:href="#DejaVuSans-65" transform="translate(190.185547 0)"/>
     <use xlink:href="#DejaVuSans-72" transform="translate(251.708984 0)"/>
     <use xlink:href="#DejaVuSans-61" transform="translate(292.822266 0)"/>
     <use xlink:href="#DejaVuSans-67" transform="translate(354.101562 0)"/>
     <use xlink:href="#DejaVuSans-65" transform="translate(417.578125 0)"/>
     <use xlink:href="#DejaVuSans-20" transform="translate(479.101562 0)"/>
     <use xlink:href="#DejaVuSans-45" transform="translate(510.888672 0)"/>
     <use xlink:href="#DejaVuSans-73" transform="translate(574.072266 0)"/>
     <use xlink:href="#DejaVuSans-74" transform="translate(626.171875 0)"/>
     <use xlink:href="#DejaVuSans-69" transform="translate(665.380859 0)"/>
     <use xlink:href="#DejaVuSans-6d" transform="translate(693.164062 0)"/>
     <use xlink:href="#DejaVuSans-61" transform="translate(790.576172 0)"/>
     <use xlink:href="#DejaVuSans-74" transform="translate(851.855469 0)"/>
     <use xlink:href="#DejaVuSans-69" transform="translate(891.064453 0)"/>
     <use xlink:href="#DejaVuSans-6f" transform="translate(918.847656 0)"/>
     <use xlink:href="#DejaVuSans-6e" transform="translate(980.029297 0)"/>
    </g>
    <!-- (env: poloco_qc_mapping) -->
    <g transform="translate(137.468939 226.17444) scale(0.09 -0.09)">
     <use xlink:href="#DejaVuSans-28"/>
     <use xlink:href="#DejaVuSans-65" transform="translate(39.013672 0)"/>
     <use xlink:href="#DejaVuSans-6e" transform="translate(100.537109 0)"/>
     <use xlink:href="#DejaVuSans-76" transform="translate(163.916016 0)"/>
     <use xlink:href="#DejaVuSans-3a" transform="translate(217.595703 0)"/>
     <use xlink:href="#DejaVuSans-20" transform="translate(251.287109 0)"/>
     <use xlink:href="#DejaVuSans-70" transform="translate(283.074219 0)"/>
     <use xlink:href="#DejaVuSans-6f" transform="translate(346.550781 0)"/>
     <use xlink:href="#DejaVuSans-6c" transform="translate(407.732422 0)"/>
     <use xlink:href="#DejaVuSans-6f" transform="translate(435.515625 0)"/>
     <use xlink:href="#DejaVuSans-63" transform="translate(496.697266 0)"/>
     <use xlink:href="#DejaVuSans-6f" transform="translate(551.677734 0)"/>
     <use xlink:href="#DejaVuSans-5f" transform="translate(612.859375 0)"/>
     <use xlink:href="#DejaVuSans-71" transform="translate(662.859375 0)"/>
     <use xlink:href="#DejaVuSans-63" transform="translate(726.335938 0)"/>
     <use xlink:href="#DejaVuSans-5f" transform="translate(781.316406 0)"/>
     <use xlink:href="#DejaVuSans-6d" transform="translate(831.316406 0)"/>
     <use xlink:href="#DejaVuSans-61" transform="translate(928.728516 0)"/>
     <use xlink:href="#DejaVuSans-70" transform="translate(990.007812 0)"/>
     <use xlink:href="#DejaVuSans-70" transform="translate(1053.484375 0)"/>
     <use xlink:href="#DejaVuSans-69" transform="translate(1116.960938 0)"/>
     <use xlink:href="#DejaVuSans-6e" transform="translate(1144.744141 0)"/>
     <use xlink:href="#DejaVuSans-67" transform="translate(1208.123047 0)"/>
     <use xlink:href="#DejaVuSans-29" transform="translate(1271.599609 0)"/>
    </g>
   </g>
   <g id="text_4">
    <!-- SNP Discovery (ANGSD) -->
    <g transform="translate(439.693164 216.096408) scale(0.09 -0.09)">
     <defs>
      <path id="DejaVuSans-53" d="M 3425 4513 
L 3425 3897 
Q 3066 4069 2747 4153 
Q 2428 4238 2131 4238 
Q 1616 4238 1336 4038 
Q 1056 3838 1056 3469 
Q 1056 3159 1242 3001 
Q 1428 2844 1947 2747 
L 2328 2669 
Q 3034 2534 3370 2195 
Q 3706 1856 3706 1288 
Q 3706 609 3251 259 
Q 2797 -91 1919 -91 
Q 1588 -91 1214 -16 
Q 841 59 441 206 
L 441 856 
Q 825 641 1194 531 
Q 1563 422 1919 422 
Q 2459 422 2753 634 
Q 3047 847 3047 1241 
Q 3047 1584 2836 1778 
Q 2625 1972 2144 2069 
L 1759 2144 
Q 1053 2284 737 2584 
Q 422 2884 422 3419 
Q 422 4038 858 4394 
Q 1294 4750 2059 4750 
Q 2388 4750 2728 4690 
Q 3069 4631 3425 4513 
z
" transform="scale(0.015625)"/>
      <path id="DejaVuSans-4e" d="M 628 4666 
L 1478 4666 
L 3547 763 
L 3547 4666 
L 4159 4666 
L 4159 0 
L 3309 0 
L 1241 3903 
L 1241 0 
L 628 0 
L 628 4666 
z
" transform="scale(0.015625)"/>
      <path id="DejaVuSans-44" d="M 1259 4147 
L 1259 519 
L 2022 519 
Q 2988 519 3436 956 
Q 3884 1394 3884 2338 
Q 3884 3275 3436 3711 
Q 2988 4147 2022 4147 
L 1259 4147 
z
M 628 4666 
L 1925 4666 
Q 3281 4666 3915 4102 
Q 4550 3538 4550 2338 
Q 4550 1131 3912 565 
Q 3275 0 1925 0 
L 628 0 
L 628 4666 
z
" transform="scale(0.015625)"/>
      <path id="DejaVuSans-79" d="M 2059 -325 
Q 1816 -950 1584 -1140 
Q 1353 -1331 966 -1331 
L 506 -1331 
L 506 -850 
L 844 -850 
Q 1081 -850 1212 -737 
Q 1344 -625 1503 -206 
L 1606 56 
L 191 3500 
L 800 3500 
L 1894 763 
L 2988 3500 
L 3597 3500 
L 2059 -325 
z
" transform="scale(0.015625)"/>
      <path id="DejaVuSans-47" d="M 3809 666 
L 3809 1919 
L 2778 1919 
L 2778 2438 
L 4434 2438 
L 4434 434 
Q 4069 175 3628 42 
Q 3188 -91 2688 -91 
Q 1594 -91 976 548 
Q 359 1188 359 2328 
Q 359 3472 976 4111 
Q 1594 4750 2688 4750 
Q 3144 4750 3555 4637 
Q 3966 4525 4313 4306 
L 4313 3634 
Q 3963 3931 3569 4081 
Q 3175 4231 2741 4231 
Q 1884 4231 1454 3753 
Q 1025 3275 1025 2328 
Q 1025 1384 1454 906 
Q 1884 428 2741 428 
Q 3075 428 3337 486 
Q 3600 544 3809 666 
z
" transform="scale(0.015625)"/>
     </defs>
     <use xlink:href="#DejaVuSans-53"/>
     <use xlink:href="#DejaVuSans-4e" transform="translate(63.476562 0)"/>
     <use xlink:href="#DejaVuSans-50" transform="translate(138.28125 0)"/>
     <use xlink:href="#DejaVuSans-20" transform="translate(198.583984 0)"/>
     <use xlink:href="#DejaVuSans-44" transform="translate(230.371094 0)"/>
     <use xlink:href="#DejaVuSans-69" transform="translate(307.373047 0)"/>
     <use xlink:href="#DejaVuSans-73" transform="translate(335.15625 0)"/>
     <use xlink:href="#DejaVuSans-63" transform="translate(387.255859 0)"/>
     <use xlink:href="#DejaVuSans-6f" transform="translate(442.236328 0)"/>
     <use xlink:href="#DejaVuSans-76" transform="translate(503.417969 0)"/>
     <use xlink:href="#DejaVuSans-65" transform="translate(562.597656 0)"/>
     <use xlink:href="#DejaVuSans-72" transform="translate(624.121094 0)"/>
     <use xlink:href="#DejaVuSans-79" transform="translate(665.234375 0)"/>
     <use xlink:href="#DejaVuSans-20" transform="translate(724.414062 0)"/>
     <use xlink:href="#DejaVuSans-28" transform="translate(756.201172 0)"/>
     <use xlink:href="#DejaVuSans-41" transform="translate(795.214844 0)"/>
     <use xlink:href="#DejaVuSans-4e" transform="translate(863.623047 0)"/>
     <use xlink:href="#DejaVuSans-47" transform="translate(938.427734 0)"/>
     <use xlink:href="#DejaVuSans-53" transform="translate(1015.917969 0)"/>
     <use xlink:href="#DejaVuSans-44" transform="translate(1079.394531 0)"/>
     <use xlink:href="#DejaVuSans-29" transform="translate(1156.396484 0)"/>
    </g>
    <!-- (env: poloco_angsd) -->
    <g transform="translate(448.234726 226.17444) scale(0.09 -0.09)">
     <defs>
      <path id="DejaVuSans-64" d="M 2906 2969 
L 2906 4863 
L 3481 4863 
L 3481 0 
L 2906 0 
L 2906 525 
Q 2725 213 2448 61 
Q 2172 -91 1784 -91 
Q 1150 -91 751 415 
Q 353 922 353 1747 
Q 353 2572 751 3078 
Q 1150 3584 1784 3584 
Q 2172 3584 2448 3432 
Q 2725 3281 2906 2969 
z
M 947 1747 
Q 947 1113 1208 752 
Q 1469 391 1925 391 
Q 2381 391 2643 752 
Q 2906 1113 2906 1747 
Q 2906 2381 2643 2742 
Q 2381 3103 1925 3103 
Q 1469 3103 1208 2742 
Q 947 2381 947 1747 
z
" transform="scale(0.015625)"/>
     </defs>
     <use xlink:href="#DejaVuSans-28"/>
     <use xlink:href="#DejaVuSans-65" transform="translate(39.013672 0)"/>
     <use xlink:href="#DejaVuSans-6e" transform="translate(100.537109 0)"/>
     <use xlink:href="#DejaVuSans-76" transform="translate(163.916016 0)"/>
     <use xlink:href="#DejaVuSans-3a" transform="translate(217.595703 0)"/>
     <use xlink:href="#DejaVuSans-20" transform="translate(251.287109 0)"/>
     <use xlink:href="#DejaVuSans-70" transform="translate(283.074219 0)"/>
     <use xlink:href="#DejaVuSans-6f" transform="translate(346.550781 0)"/>
     <use xlink:href="#DejaVuSans-6c" transform="translate(407.732422 0)"/>
     <use xlink:href="#DejaVuSans-6f" transform="translate(435.515625 0)"/>
     <use xlink:href="#DejaVuSans-63" transform="translate(496.697266 0)"/>
     <use xlink:href="#DejaVuSans-6f" transform="translate(551.677734 0)"/>
     <use xlink:href="#DejaVuSans-5f" transform="translate(612.859375 0)"/>
     <use xlink:href="#DejaVuSans-61" transform="translate(662.859375 0)"/>
     <use xlink:href="#DejaVuSans-6e" transform="translate(724.138672 0)"/>
     <use xlink:href="#DejaVuSans-67" transform="translate(787.517578 0)"/>
     <use xlink:href="#DejaVuSans-73" transform="translate(850.994141 0)"/>
     <use xlink:href="#DejaVuSans-64" transform="translate(903.09375 0)"/>
     <use xlink:href="#DejaVuSans-29" transform="translate(966.570312 0)"/>
    </g>
   </g>
   <g id="text_5">
    <!-- QC Visualization -->
    <g transform="translate(753.991451 216.096408) scale(0.09 -0.09)">
     <defs>
      <path id="DejaVuSans-56" d="M 1831 0 
L 50 4666 
L 709 4666 
L 2188 738 
L 3669 4666 
L 4325 4666 
L 2547 0 
L 1831 0 
z
" transform="scale(0.015625)"/>
      <path id="DejaVuSans-75" d="M 544 1381 
L 544 3500 
L 1119 3500 
L 1119 1403 
Q 1119 906 1312 657 
Q 1506 409 1894 409 
Q 2359 409 2629 706 
Q 2900 1003 2900 1516 
L 2900 3500 
L 3475 3500 
L 3475 0 
L 2900 0 
L 2900 538 
Q 2691 219 2414 64 
Q 2138 -91 1772 -91 
Q 1169 -91 856 284 
Q 544 659 544 1381 
z
M 1991 3584 
L 1991 3584 
z
" transform="scale(0.015625)"/>
      <path id="DejaVuSans-7a" d="M 353 3500 
L 3084 3500 
L 3084 2975 
L 922 459 
L 3084 459 
L 3084 0 
L 275 0 
L 275 525 
L 2438 3041 
L 353 3041 
L 353 3500 
z
" transform="scale(0.015625)"/>
     </defs>
     <use xlink:href="#DejaVuSans-51"/>
     <use xlink:href="#DejaVuSans-43" transform="translate(78.710938 0)"/>
     <use xlink:href="#DejaVuSans-20" transform="translate(148.535156 0)"/>
     <use xlink:href="#DejaVuSans-56" transform="translate(180.322266 0)"/>
     <use xlink:href="#DejaVuSans-69" transform="translate(246.480469 0)"/>
     <use xlink:href="#DejaVuSans-73" transform="translate(274.263672 0)"/>
     <use xlink:href="#DejaVuSans-75" transform="translate(326.363281 0)"/>
     <use xlink:href="#DejaVuSans-61" transform="translate(389.742188 0)"/>
     <use xlink:href="#DejaVuSans-6c" transform="translate(451.021484 0)"/>
     <use xlink:href="#DejaVuSans-69" transform="translate(478.804688 0)"/>
     <use xlink:href="#DejaVuSans-7a" transform="translate(506.587891 0)"/>
     <use xlink:href="#DejaVuSans-61" transform="translate(559.078125 0)"/>
     <use xlink:href="#DejaVuSans-74" transform="translate(620.357422 0)"/>
     <use xlink:href="#DejaVuSans-69" transform="translate(659.566406 0)"/>
     <use xlink:href="#DejaVuSans-6f" transform="translate(687.349609 0)"/>
     <use xlink:href="#DejaVuSans-6e" transform="translate(748.53125 0)"/>
    </g>
    <!-- (env: poloco_angsd) -->
    <g transform="translate(745.273404 226.17444) scale(0.09 -0.09)">
     <use xlink:href="#DejaVuSans-28"/>
     <use xlink:href="#DejaVuSans-65" transform="translate(39.013672 0)"/>
     <use xlink:href="#DejaVuSans-6e" transform="translate(100.537109 0)"/>
     <use xlink:href="#DejaVuSans-76" transform="translate(163.916016 0)"/>
     <use xlink:href="#DejaVuSans-3a" transform="translate(217.595703 0)"/>
     <use xlink:href="#DejaVuSans-20" transform="translate(251.287109 0)"/>
     <use xlink:href="#DejaVuSans-70" transform="translate(283.074219 0)"/>
     <use xlink:href="#DejaVuSans-6f" transform="translate(346.550781 0)"/>
     <use xlink:href="#DejaVuSans-6c" transform="translate(407.732422 0)"/>
     <use xlink:href="#DejaVuSans-6f" transform="translate(435.515625 0)"/>
     <use xlink:href="#DejaVuSans-63" transform="translate(496.697266 0)"/>
     <use xlink:href="#DejaVuSans-6f" transform="translate(551.677734 0)"/>
     <use xlink:href="#DejaVuSans-5f" transform="translate(612.859375 0)"/>
     <use xlink:href="#DejaVuSans-61" transform="translate(662.859375 0)"/>
     <use xlink:href="#DejaVuSans-6e" transform="translate(724.138672 0)"/>
     <use xlink:href="#DejaVuSans-67" transform="translate(787.517578 0)"/>
     <use xlink:href="#DejaVuSans-73" transform="translate(850.994141 0)"/>
     <use xlink:href="#DejaVuSans-64" transform="translate(903.09375 0)"/>
     <use xlink:href="#DejaVuSans-29" transform="translate(966.570312 0)"/>
    </g>
   </g>
   <g id="text_6">
    <!-- Assembly (Draft Genome) -->
    <g transform="translate(138.032845 328.553551) scale(0.09 -0.09)">
     <defs>
      <path id="DejaVuSans-62" d="M 3116 1747 
Q 3116 2381 2855 2742 
Q 2594 3103 2138 3103 
Q 1681 3103 1420 2742 
Q 1159 2381 1159 1747 
Q 1159 1113 1420 752 
Q 1681 391 2138 391 
Q 2594 391 2855 752 
Q 3116 1113 3116 1747 
z
M 1159 2969 
Q 1341 3281 1617 3432 
Q 1894 3584 2278 3584 
Q 2916 3584 3314 3078 
Q 3713 2572 3713 1747 
Q 3713 922 3314 415 
Q 2916 -91 2278 -91 
Q 1894 -91 1617 61 
Q 1341 213 1159 525 
L 1159 0 
L 581 0 
L 581 4863 
L 1159 4863 
L 1159 2969 
z
" transform="scale(0.015625)"/>
      <path id="DejaVuSans-66" d="M 2375 4863 
L 2375 4384 
L 1825 4384 
Q 1516 4384 1395 4259 
Q 1275 4134 1275 3809 
L 1275 3500 
L 2222 3500 
L 2222 3053 
L 1275 3053 
L 1275 0 
L 697 0 
L 697 3053 
L 147 3053 
L 147 3500 
L 697 3500 
L 697 3744 
Q 697 4328 969 4595 
Q 1241 4863 1831 4863 
L 2375 4863 
z
" transform="scale(0.015625)"/>
     </defs>
     <use xlink:href="#DejaVuSans-41"/>
     <use xlink:href="#DejaVuSans-73" transform="translate(68.408203 0)"/>
     <use xlink:href="#DejaVuSans-73" transform="translate(120.507812 0)"/>
     <use xlink:href="#DejaVuSans-65" transform="translate(172.607422 0)"/>
     <use xlink:href="#DejaVuSans-6d" transform="translate(234.130859 0)"/>
     <use xlink:href="#DejaVuSans-62" transform="translate(331.542969 0)"/>
     <use xlink:href="#DejaVuSans-6c" transform="translate(395.019531 0)"/>
     <use xlink:href="#DejaVuSans-79" transform="translate(422.802734 0)"/>
     <use xlink:href="#DejaVuSans-20" transform="translate(481.982422 0)"/>
     <use xlink:href="#DejaVuSans-28" transform="translate(513.769531 0)"/>
     <use xlink:href="#DejaVuSans-44" transform="translate(552.783203 0)"/>
     <use xlink:href="#DejaVuSans-72" transform="translate(629.785156 0)"/>
     <use xlink:href="#DejaVuSans-61" transform="translate(670.898438 0)"/>
     <use xlink:href="#DejaVuSans-66" transform="translate(732.177734 0)"/>
     <use xlink:href="#DejaVuSans-74" transform="translate(765.632812 0)"/>
     <use xlink:href="#DejaVuSans-20" transform="translate(804.841797 0)"/>
     <use xlink:href="#DejaVuSans-47" transform="translate(836.628906 0)"/>
     <use xlink:href="#DejaVuSans-65" transform="translate(914.119141 0)"/>
     <use xlink:href="#DejaVuSans-6e" transform="translate(975.642578 0)"/>
     <use xlink:href="#DejaVuSans-6f" transform="translate(1039.021484 0)"/>
     <use xlink:href="#DejaVuSans-6d" transform="translate(1100.203125 0)"/>
     <use xlink:href="#DejaVuSans-65" transform="translate(1197.615234 0)"/>
     <use xlink:href="#DejaVuSans-29" transform="translate(1259.138672 0)"/>
    </g>
    <!-- (env: poloco_assembly) -->
    <g transform="translate(143.49472 338.631583) scale(0.09 -0.09)">
     <use xlink:href="#DejaVuSans-28"/>
     <use xlink:href="#DejaVuSans-65" transform="translate(39.013672 0)"/>
     <use xlink:href="#DejaVuSans-6e" transform="translate(100.537109 0)"/>
     <use xlink:href="#DejaVuSans-76" transform="translate(163.916016 0)"/>
     <use xlink:href="#DejaVuSans-3a" transform="translate(217.595703 0)"/>
     <use xlink:href="#DejaVuSans-20" transform="translate(251.287109 0)"/>
     <use xlink:href="#DejaVuSans-70" transform="translate(283.074219 0)"/>
     <use xlink:href="#DejaVuSans-6f" transform="translate(346.550781 0)"/>
     <use xlink:href="#DejaVuSans-6c" transform="translate(407.732422 0)"/>
     <use xlink:href="#DejaVuSans-6f" transform="translate(435.515625 0)"/>
     <use xlink:href="#DejaVuSans-63" transform="translate(496.697266 0)"/>
     <use xlink:href="#DejaVuSans-6f" transform="translate(551.677734 0)"/>
     <use xlink:href="#DejaVuSans-5f" transform="translate(612.859375 0)"/>
     <use xlink:href="#DejaVuSans-61" transform="translate(662.859375 0)"/>
     <use xlink:href="#DejaVuSans-73" transform="translate(724.138672 0)"/>
     <use xlink:href="#DejaVuSans-73" transform="translate(776.238281 0)"/>
     <use xlink:href="#DejaVuSans-65" transform="translate(828.337891 0)"/>
     <use xlink:href="#DejaVuSans-6d" transform="translate(889.861328 0)"/>
     <use xlink:href="#DejaVuSans-62" transform="translate(987.273438 0)"/>
     <use xlink:href="#DejaVuSans-6c" transform="translate(1050.75 0)"/>
     <use xlink:href="#DejaVuSans-79" transform="translate(1078.533203 0)"/>
     <use xlink:href="#DejaVuSans-29" transform="translate(1137.712891 0)"/>
    </g>
   </g>
   <g id="text_7">
    <!-- Validation -->
    <g transform="translate(471.266289 328.553551) scale(0.09 -0.09)">
     <use xlink:href="#DejaVuSans-56"/>
     <use xlink:href="#DejaVuSans-61" transform="translate(60.658203 0)"/>
     <use xlink:href="#DejaVuSans-6c" transform="translate(121.9375 0)"/>
     <use xlink:href="#DejaVuSans-69" transform="translate(149.720703 0)"/>
     <use xlink:href="#DejaVuSans-64" transform="translate(177.503906 0)"/>
     <use xlink:href="#DejaVuSans-61" transform="translate(240.980469 0)"/>
     <use xlink:href="#DejaVuSans-74" transform="translate(302.259766 0)"/>
     <use xlink:href="#DejaVuSans-69" transform="translate(341.46875 0)"/>
     <use xlink:href="#DejaVuSans-6f" transform="translate(369.251953 0)"/>
     <use xlink:href="#DejaVuSans-6e" transform="translate(430.433594 0)"/>
    </g>
    <!-- (env: poloco_assembly) -->
    <g transform="translate(440.533398 338.631583) scale(0.09 -0.09)">
     <use xlink:href="#DejaVuSans-28"/>
     <use xlink:href="#DejaVuSans-65" transform="translate(39.013672 0)"/>
     <use xlink:href="#DejaVuSans-6e" transform="translate(100.537109 0)"/>
     <use xlink:href="#DejaVuSans-76" transform="translate(163.916016 0)"/>
     <use xlink:href="#DejaVuSans-3a" transform="translate(217.595703 0)"/>
     <use xlink:href="#DejaVuSans-20" transform="translate(251.287109 0)"/>
     <use xlink:href="#DejaVuSans-70" transform="translate(283.074219 0)"/>
     <use xlink:href="#DejaVuSans-6f" transform="translate(346.550781 0)"/>
     <use xlink:href="#DejaVuSans-6c" transform="translate(407.732422 0)"/>
     <use xlink:href="#DejaVuSans-6f" transform="translate(435.515625 0)"/>
     <use xlink:href="#DejaVuSans-63" transform="translate(496.697266 0)"/>
     <use xlink:href="#DejaVuSans-6f" transform="translate(551.677734 0)"/>
     <use xlink:href="#DejaVuSans-5f" transform="translate(612.859375 0)"/>
     <use xlink:href="#DejaVuSans-61" transform="translate(662.859375 0)"/>
     <use xlink:href="#DejaVuSans-73" transform="translate(724.138672 0)"/>
     <use xlink:href="#DejaVuSans-73" transform="translate(776.238281 0)"/>
     <use xlink:href="#DejaVuSans-65" transform="translate(828.337891 0)"/>
     <use xlink:href="#DejaVuSans-6d" transform="translate(889.861328 0)"/>
     <use xlink:href="#DejaVuSans-62" transform="translate(987.273438 0)"/>
     <use xlink:href="#DejaVuSans-6c" transform="translate(1050.75 0)"/>
     <use xlink:href="#DejaVuSans-79" transform="translate(1078.533203 0)"/>
     <use xlink:href="#DejaVuSans-29" transform="translate(1137.712891 0)"/>
    </g>
   </g>
   <g id="text_8">
    <!-- Annotation (optional) -->
    <g transform="translate(742.670435 328.553551) scale(0.09 -0.09)">
     <use xlink:href="#DejaVuSans-41"/>
     <use xlink:href="#DejaVuSans-6e" transform="translate(68.408203 0)"/>
     <use xlink:href="#DejaVuSans-6e" transform="translate(131.787109 0)"/>
     <use xlink:href="#DejaVuSans-6f" transform="translate(195.166016 0)"/>
     <use xlink:href="#DejaVuSans-74" transform="translate(256.347656 0)"/>
     <use xlink:href="#DejaVuSans-61" transform="translate(295.556641 0)"/>
     <use xlink:href="#DejaVuSans-74" transform="translate(356.835938 0)"/>
     <use xlink:href="#DejaVuSans-69" transform="translate(396.044922 0)"/>
     <use xlink:href="#DejaVuSans-6f" transform="translate(423.828125 0)"/>
     <use xlink:href="#DejaVuSans-6e" transform="translate(485.009766 0)"/>
     <use xlink:href="#DejaVuSans-20" transform="translate(548.388672 0)"/>
     <use xlink:href="#DejaVuSans-28" transform="translate(580.175781 0)"/>
     <use xlink:href="#DejaVuSans-6f" transform="translate(619.189453 0)"/>
     <use xlink:href="#DejaVuSans-70" transform="translate(680.371094 0)"/>
     <use xlink:href="#DejaVuSans-74" transform="translate(743.847656 0)"/>
     <use xlink:href="#DejaVuSans-69" transform="translate(783.056641 0)"/>
     <use xlink:href="#DejaVuSans-6f" transform="translate(810.839844 0)"/>
     <use xlink:href="#DejaVuSans-6e" transform="translate(872.021484 0)"/>
     <use xlink:href="#DejaVuSans-61" transform="translate(935.400391 0)"/>
     <use xlink:href="#DejaVuSans-6c" transform="translate(996.679688 0)"/>
     <use xlink:href="#DejaVuSans-29" transform="translate(1024.462891 0)"/>
    </g>
    <!-- (env: poloco_annotation) -->
    <g transform="translate(734.584498 338.631583) scale(0.09 -0.09)">
     <use xlink:href="#DejaVuSans-28"/>
     <use xlink:href="#DejaVuSans-65" transform="translate(39.013672 0)"/>
     <use xlink:href="#DejaVuSans-6e" transform="translate(100.537109 0)"/>
     <use xlink:href="#DejaVuSans-76" transform="translate(163.916016 0)"/>
     <use xlink:href="#DejaVuSans-3a" transform="translate(217.595703 0)"/>
     <use xlink:href="#DejaVuSans-20" transform="translate(251.287109 0)"/>
     <use xlink:href="#DejaVuSans-70" transform="translate(283.074219 0)"/>
     <use xlink:href="#DejaVuSans-6f" transform="translate(346.550781 0)"/>
     <use xlink:href="#DejaVuSans-6c" transform="translate(407.732422 0)"/>
     <use xlink:href="#DejaVuSans-6f" transform="translate(435.515625 0)"/>
     <use xlink:href="#DejaVuSans-63" transform="translate(496.697266 0)"/>
     <use xlink:href="#DejaVuSans-6f" transform="translate(551.677734 0)"/>
     <use xlink:href="#DejaVuSans-5f" transform="translate(612.859375 0)"/>
     <use xlink:href="#DejaVuSans-61" transform="translate(662.859375 0)"/>
     <use xlink:href="#DejaVuSans-6e" transform="translate(724.138672 0)"/>
     <use xlink:href="#DejaVuSans-6e" transform="translate(787.517578 0)"/>
     <use xlink:href="#DejaVuSans-6f" transform="translate(850.896484 0)"/>
     <use xlink:href="#DejaVuSans-74" transform="translate(912.078125 0)"/>
     <use xlink:href="#DejaVuSans-61" transform="translate(951.287109 0)"/>
     <use xlink:href="#DejaVuSans-74" transform="translate(1012.566406 0)"/>
     <use xlink:href="#DejaVuSans-69" transform="translate(1051.775391 0)"/>
     <use xlink:href="#DejaVuSans-6f" transform="translate(1079.558594 0)"/>
     <use xlink:href="#DejaVuSans-6e" transform="translate(1140.740234 0)"/>
     <use xlink:href="#DejaVuSans-29" transform="translate(1204.119141 0)"/>
    </g>
   </g>
   <g id="patch_10">
    <path d="M 309.837488 106.32 
Q 344.96895 106.32 378.423361 106.32 
" style="fill: none; stroke: #000000; stroke-width: 1.5; stroke-linecap: round"/>
    <path d="M 374.423361 104.32 
L 378.423361 106.32 
L 374.423361 108.32 
" style="fill: none; stroke: #000000; stroke-width: 1.5; stroke-linecap: round"/>
   </g>
   <g id="patch_11">
    <path d="M 603.092703 107.220879 
Q 493.487447 162.548775 385.37931 217.120938 
" style="fill: none; stroke: #000000; stroke-width: 1.5; stroke-linecap: round"/>
    <path d="M 389.851414 217.103825 
L 385.37931 217.120938 
L 388.048882 213.532987 
" style="fill: none; stroke: #000000; stroke-width: 1.5; stroke-linecap: round"/>
   </g>
   <g id="patch_12">
    <path d="M 309.837488 218.777143 
Q 344.96895 218.777143 378.423361 218.777143 
" style="fill: none; stroke: #000000; stroke-width: 1.5; stroke-linecap: round"/>
    <path d="M 374.423361 216.777143 
L 378.423361 218.777143 
L 374.423361 220.777143 
" style="fill: none; stroke: #000000; stroke-width: 1.5; stroke-linecap: round"/>
   </g>
   <g id="patch_13">
    <path d="M 606.876166 218.777143 
Q 642.007628 218.777143 675.462039 218.777143 
" style="fill: none; stroke: #000000; stroke-width: 1.5; stroke-linecap: round"/>
    <path d="M 671.462039 216.777143 
L 675.462039 218.777143 
L 671.462039 220.777143 
" style="fill: none; stroke: #000000; stroke-width: 1.5; stroke-linecap: round"/>
   </g>
   <g id="patch_14">
    <path d="M 309.837488 331.234286 
Q 344.96895 331.234286 378.423361 331.234286 
" style="fill: none; stroke: #000000; stroke-width: 1.5; stroke-linecap: round"/>
    <path d="M 374.423361 329.234286 
L 378.423361 331.234286 
L 374.423361 333.234286 
" style="fill: none; stroke: #000000; stroke-width: 1.5; stroke-linecap: round"/>
   </g>
   <g id="patch_15">
    <path d="M 606.876166 331.234286 
Q 642.007628 331.234286 675.462039 331.234286 
" style="fill: none; stroke: #000000; stroke-width: 1.5; stroke-linecap: round"/>
    <path d="M 671.462039 329.234286 
L 675.462039 331.234286 
L 671.462039 333.234286 
" style="fill: none; stroke: #000000; stroke-width: 1.5; stroke-linecap: round"/>
   </g>
   <g id="patch_16">
    <path d="M 196.449174 183.038504 
Q 196.449174 162.548641 196.449174 143.735828 
" style="fill: none; stroke: #000000; stroke-width: 1.5; stroke-linecap: round"/>
    <path d="M 194.449174 147.735828 
L 196.449174 143.735828 
L 198.449174 147.735828 
" style="fill: none; stroke: #000000; stroke-width: 1.5; stroke-linecap: round"/>
   </g>
   <g id="patch_17">
    <path d="M 196.449174 254.515781 
Q 196.449174 275.005645 196.449174 293.818457 
" style="fill: none; stroke: #000000; stroke-width: 1.5; stroke-linecap: round"/>
    <path d="M 198.449174 289.818457 
L 196.449174 293.818457 
L 194.449174 289.818457 
" style="fill: none; stroke: #000000; stroke-width: 1.5; stroke-linecap: round"/>
   </g>
   <g id="text_9">
    <!-- PoLoCo Workflow -->
    <g transform="translate(350.530838 21.6) scale(0.14 -0.14)">
     <defs>
      <path id="DejaVuSans-Bold-50" d="M 588 4666 
L 2584 4666 
Q 3475 4666 3951 4270 
Q 4428 3875 4428 3144 
Q 4428 2409 3951 2014 
Q 3475 1619 2584 1619 
L 1791 1619 
L 1791 0 
L 588 0 
L 588 4666 
z
M 1791 3794 
L 1791 2491 
L 2456 2491 
Q 2806 2491 2997 2661 
Q 3188 2831 3188 3144 
Q 3188 3456 2997 3625 
Q 2806 3794 2456 3794 
L 1791 3794 
z
" transform="scale(0.015625)"/>
      <path id="DejaVuSans-Bold-6f" d="M 2203 2784 
Q 1831 2784 1636 2517 
Q 1441 2250 1441 1747 
Q 1441 1244 1636 976 
Q 1831 709 2203 709 
Q 2569 709 2762 976 
Q 2956 1244 2956 1747 
Q 2956 2250 2762 2517 
Q 2569 2784 2203 2784 
z
M 2203 3584 
Q 3106 3584 3614 3096 
Q 4122 2609 4122 1747 
Q 4122 884 3614 396 
Q 3106 -91 2203 -91 
Q 1297 -91 786 396 
Q 275 884 275 1747 
Q 275 2609 786 3096 
Q 1297 3584 2203 3584 
z
" transform="scale(0.015625)"/>
      <path id="DejaVuSans-Bold-4c" d="M 588 4666 
L 1791 4666 
L 1791 909 
L 3903 909 
L 3903 0 
L 588 0 
L 588 4666 
z
" transform="scale(0.015625)"/>
      <path id="DejaVuSans-Bold-43" d="M 4288 256 
Q 3956 84 3597 -3 
Q 3238 -91 2847 -91 
Q 1681 -91 1000 561 
Q 319 1213 319 2328 
Q 319 3447 1000 4098 
Q 1681 4750 2847 4750 
Q 3238 4750 3597 4662 
Q 3956 4575 4288 4403 
L 4288 3438 
Q 3953 3666 3628 3772 
Q 3303 3878 2944 3878 
Q 2300 3878 1931 3465 
Q 1563 3053 1563 2328 
Q 1563 1606 1931 1193 
Q 2300 781 2944 781 
Q 3303 781 3628 887 
Q 3953 994 4288 1222 
L 4288 256 
z
" transform="scale(0.015625)"/>
      <path id="DejaVuSans-Bold-20" transform="scale(0.015625)"/>
      <path id="DejaVuSans-Bold-57" d="M 191 4666 
L 1344 4666 
L 2150 1275 
L 2950 4666 
L 4109 4666 
L 4909 1275 
L 5716 4666 
L 6859 4666 
L 5759 0 
L 4372 0 
L 3525 3547 
L 2688 0 
L 1300 0 
L 191 4666 
z
" transform="scale(0.015625)"/>
      <path id="DejaVuSans-Bold-72" d="M 3138 2547 
Q 2991 2616 2845 2648 
Q 2700 2681 2553 2681 
Q 2122 2681 1889 2404 
Q 1656 2128 1656 1613 
L 1656 0 
L 538 0 
L 538 3500 
L 1656 3500 
L 1656 2925 
Q 1872 3269 2151 3426 
Q 2431 3584 2822 3584 
Q 2878 3584 2943 3579 
Q 3009 3575 3134 3559 
L 3138 2547 
z
" transform="scale(0.015625)"/>
      <path id="DejaVuSans-Bold-6b" d="M 538 4863 
L 1656 4863 
L 1656 2216 
L 2944 3500 
L 4244 3500 
L 2534 1894 
L 4378 0 
L 3022 0 
L 1656 1459 
L 1656 0 
L 538 0 
L 538 4863 
z
" transform="scale(0.015625)"/>
      <path id="DejaVuSans-Bold-66" d="M 2841 4863 
L 2841 4128 
L 2222 4128 
Q 1984 4128 1890 4042 
Q 1797 3956 1797 3744 
L 1797 3500 
L 2753 3500 
L 2753 2700 
L 1797 2700 
L 1797 0 
L 678 0 
L 678 2700 
L 122 2700 
L 122 3500 
L 678 3500 
L 678 3744 
Q 678 4316 997 4589 
Q 1316 4863 1984 4863 
L 2841 4863 
z
" transform="scale(0.015625)"/>
      <path id="DejaVuSans-Bold-6c" d="M 538 4863 
L 1656 4863 
L 1656 0 
L 538 0 
L 538 4863 
z
" transform="scale(0.015625)"/>
      <path id="DejaVuSans-Bold-77" d="M 225 3500 
L 1313 3500 
L 1900 1088 
L 2491 3500 
L 3425 3500 
L 4013 1113 
L 4603 3500 
L 5691 3500 
L 4769 0 
L 3547 0 
L 2956 2406 
L 2369 0 
L 1147 0 
L 225 3500 
z
" transform="scale(0.015625)"/>
     </defs>
     <use xlink:href="#DejaVuSans-Bold-50"/>
     <use xlink:href="#DejaVuSans-Bold-6f" transform="translate(73.291016 0)"/>
     <use xlink:href="#DejaVuSans-Bold-4c" transform="translate(141.992188 0)"/>
     <use xlink:href="#DejaVuSans-Bold-6f" transform="translate(205.712891 0)"/>
     <use xlink:href="#DejaVuSans-Bold-43" transform="translate(274.414062 0)"/>
     <use xlink:href="#DejaVuSans-Bold-6f" transform="translate(347.802734 0)"/>
     <use xlink:href="#DejaVuSans-Bold-20" transform="translate(416.503906 0)"/>
     <use xlink:href="#DejaVuSans-Bold-57" transform="translate(451.318359 0)"/>
     <use xlink:href="#DejaVuSans-Bold-6f" transform="translate(557.996094 0)"/>
     <use xlink:href="#DejaVuSans-Bold-72" transform="translate(626.697266 0)"/>
     <use xlink:href="#DejaVuSans-Bold-6b" transform="translate(676.013672 0)"/>
     <use xlink:href="#DejaVuSans-Bold-66" transform="translate(742.517578 0)"/>
     <use xlink:href="#DejaVuSans-Bold-6c" transform="translate(786.023438 0)"/>
     <use xlink:href="#DejaVuSans-Bold-6f" transform="translate(820.300781 0)"/>
     <use xlink:href="#DejaVuSans-Bold-77" transform="translate(889.001953 0)"/>
    </g>
   </g>
  </g>
 </g>
 <defs>
  <clipPath id="p852240ff4b">
   <rect x="10.8" y="27.6" width="816.856364" height="393.6"/>
  </clipPath>
 </defs>
</svg>
